nColumns=28
nRows=53
DataType=double
version=3
OpenSimVersion=4.1
endheader
time	ground_force_1_vx	ground_force_1_vy	ground_force_1_vz	ground_force_1_px	ground_force_1_py	ground_force_1_pz	ground_force_1_mx	ground_force_1_my	ground_force_1_mz	ground_force_2_vx	ground_force_2_vy	ground_force_2_vz	ground_force_2_px	ground_force_2_py	ground_force_2_pz	ground_force_2_mx	ground_force_2_my	ground_force_2_mz	ground_force_3_vx	ground_force_3_vy	ground_force_3_vz	ground_force_3_px	ground_force_3_py	ground_force_3_pz	ground_force_3_mx	ground_force_3_my	ground_force_3_mz
3.14	8.04761	544.21	-10.6438	-0.260665	0.006	-0.456107	0	-0.520222	0	-3.99718	94.3478	4.41414	-0.197319	0.006	-0.843133	0	1.56566	0	0	0	0	0	0	0	0	0	0
3.15	8.25263	542.821	-10.2494	-0.260616	0.006	-0.45613	0	-0.627304	0	-3.91376	95.3591	4.17039	-0.198184	0.006	-0.843161	0	1.60478	0	0	0	0	0	0	0	0	0	0
3.16	8.43104	541.577	-9.82892	-0.260575	0.006	-0.456166	0	-0.730734	0	-3.84504	96.4809	3.97921	-0.199133	0.006	-0.843223	0	1.6441	0	0	0	0	0	0	0	0	0	0
3.17	8.57119	540.486	-9.39653	-0.260535	0.006	-0.456212	0	-0.829585	0	-3.79311	97.7157	3.8439	-0.200161	0.006	-0.843314	0	1.68336	0	0	0	0	0	0	0	0	0	0
3.18	8.66153	539.536	-8.96383	-0.260492	0.006	-0.456267	0	-0.922821	0	-3.75654	99.0704	3.76668	-0.201263	0.006	-0.843425	0	1.72259	0	0	0	0	0	0	0	0	0	0
3.19	8.68851	538.689	-8.5367	-0.26044	0.006	-0.45633	0	-1.00919	0	-3.73149	100.551	3.74909	-0.202433	0.006	-0.843548	0	1.76195	0	0	0	0	0	0	0	0	0	0
3.2	8.63584	537.889	-8.11468	-0.260377	0.006	-0.456403	0	-1.0875	0	-3.71279	102.156	3.79213	-0.203659	0.006	-0.843676	0	1.80167	0	0	0	0	0	0	0	0	0	0
3.21	8.48608	537.072	-7.69172	-0.260301	0.006	-0.456487	0	-1.15682	0	-3.6955	103.875	3.8964	-0.204921	0.006	-0.843808	0	1.8419	0	0	0	0	0	0	0	0	0	0
3.22	8.22464	536.172	-7.25853	-0.260207	0.006	-0.456582	0	-1.21639	0	-3.67693	105.684	4.06182	-0.206191	0.006	-0.843941	0	1.88256	0	0	0	0	0	0	0	0	0	0
3.23	7.8433	535.13	-6.80546	-0.260096	0.006	-0.45669	0	-1.26579	0	-3.65775	107.555	4.28702	-0.207434	0.006	-0.844079	0	1.92346	0	0	0	0	0	0	0	0	0	0
3.24	7.34239	533.894	-6.32568	-0.259967	0.006	-0.456811	0	-1.30508	0	-3.6412	109.458	4.56951	-0.208613	0.006	-0.844225	0	1.96427	0	0	0	0	0	0	0	0	0	0
3.25	6.72968	532.419	-5.81775	-0.259822	0.006	-0.456944	0	-1.33491	0	-3.63128	111.367	4.90653	-0.209698	0.006	-0.844382	0	2.00429	0	0	0	0	0	0	0	0	0	0
3.26	6.01863	530.671	-5.28698	-0.259665	0.006	-0.457086	0	-1.35655	0	-3.63058	113.264	5.29543	-0.210668	0.006	-0.844554	0	2.04245	0	0	0	0	0	0	0	0	0	0
3.27	5.22754	528.622	-4.74541	-0.259499	0.006	-0.457234	0	-1.37184	0	-3.63915	115.133	5.73319	-0.211513	0.006	-0.844742	0	2.07753	0	0	0	0	0	0	0	0	0	0
3.28	4.3788	526.256	-4.21028	-0.259333	0.006	-0.457384	0	-1.38298	0	-3.65481	116.963	6.21557	-0.212235	0.006	-0.844948	0	2.10825	0	0	0	0	0	0	0	0	0	0
3.29	3.49674	523.568	-3.70178	-0.259172	0.006	-0.457531	0	-1.39237	0	-3.67394	118.743	6.7368	-0.212835	0.006	-0.845173	0	2.13344	0	0	0	0	0	0	0	0	0	0
3.3	2.60455	520.559	-3.24042	-0.259023	0.006	-0.457668	0	-1.40234	0	-3.69285	120.457	7.28922	-0.213319	0.006	-0.845416	0	2.15214	0	0	0	0	0	0	0	0	0	0
3.31	1.72408	517.241	-2.84561	-0.258893	0.006	-0.45779	0	-1.41501	0	-3.70966	122.078	7.86303	-0.213691	0.006	-0.845676	0	2.16363	0	0	0	0	0	0	0	0	0	0
3.32	0.877204	513.634	-2.5341	-0.258789	0.006	-0.457891	0	-1.43221	0	-3.72461	123.573	8.4459	-0.213954	0.006	-0.845946	0	2.16759	0	0	0	0	0	0	0	0	0	0
3.33	0.0862657	509.768	-2.31905	-0.258717	0.006	-0.457967	0	-1.45534	0	-3.73873	124.901	9.02264	-0.214109	0.006	-0.846221	0	2.16402	0	0	0	0	0	0	0	0	0	0
3.34	-0.627989	505.678	-2.21005	-0.258682	0.006	-0.458014	0	-1.48514	0	-3.75266	126.023	9.57595	-0.214158	0.006	-0.846489	0	2.15328	0	0	0	0	0	0	0	0	0	0
3.35	-1.24926	501.395	-2.21299	-0.258689	0.006	-0.458031	0	-1.52163	0	-3.76642	126.908	10.0887	-0.214109	0.006	-0.846742	0	2.13601	0	0	0	0	0	0	0	0	0	0
3.36	-1.76289	496.948	-2.32846	-0.25874	0.006	-0.458016	0	-1.5641	0	-3.77843	127.544	10.5469	-0.213975	0.006	-0.846972	0	2.11293	0	0	0	0	0	0	0	0	0	0
3.37	-2.15349	492.371	-2.55095	-0.25884	0.006	-0.45797	0	-1.61123	0	-3.78463	127.938	10.9412	-0.213773	0.006	-0.84717	0	2.08491	0	0	0	0	0	0	0	0	0	0
3.38	-2.40645	487.708	-2.86906	-0.258991	0.006	-0.457897	0	-1.66128	0	-3.77805	128.114	11.2675	-0.213528	0.006	-0.847334	0	2.05283	0	0	0	0	0	0	0	0	0	0
3.39	-2.51104	483.018	-3.26651	-0.259197	0.006	-0.457798	0	-1.71209	0	-3.74943	128.116	11.5264	-0.213266	0.006	-0.847458	0	2.01751	0	0	0	0	0	0	0	0	0	0
3.4	-2.46306	478.372	-3.72411	-0.259455	0.006	-0.457681	0	-1.76121	0	-3.68885	127.995	11.7222	-0.213017	0.006	-0.84754	0	1.97965	0	0	0	0	0	0	0	0	0	0
3.41	-2.26811	473.849	-4.22112	-0.259762	0.006	-0.457549	0	-1.8061	0	-3.58739	127.808	11.8629	-0.212808	0.006	-0.847581	0	1.93976	0	0	0	0	0	0	0	0	0	0
3.42	-1.94244	469.526	-4.73589	-0.260108	0.006	-0.45741	0	-1.84434	0	-3.43836	127.614	11.9586	-0.212666	0.006	-0.847583	0	1.89824	0	0	0	0	0	0	0	0	0	0
3.43	-1.50989	465.478	-5.247	-0.260482	0.006	-0.457271	0	-1.87395	0	-3.23749	127.466	12.0212	-0.212613	0.006	-0.84755	0	1.85533	0	0	0	0	0	0	0	0	0	0
3.44	-0.998425	461.775	-5.73477	-0.260872	0.006	-0.457138	0	-1.89332	0	-2.98288	127.412	12.0625	-0.212663	0.006	-0.847487	0	1.81113	0	0	0	0	0	0	0	0	0	0
3.45	-0.437663	458.473	-6.18225	-0.261265	0.006	-0.457017	0	-1.90137	0	-2.67511	127.489	12.0945	-0.212829	0.006	-0.8474	0	1.76575	0	0	0	0	0	0	0	0	0	0
3.46	0.143917	455.617	-6.57562	-0.261651	0.006	-0.456912	0	-1.8975	0	-2.31823	127.725	12.1294	-0.213114	0.006	-0.847295	0	1.71933	0	0	0	0	0	0	0	0	0	0
3.47	0.721624	453.231	-6.90398	-0.262018	0.006	-0.456825	0	-1.88149	0	-1.92045	128.142	12.1794	-0.213515	0.006	-0.847179	0	1.67216	0	0	0	0	0	0	0	0	0	0
3.48	1.27611	451.323	-7.15945	-0.26236	0.006	-0.456758	0	-1.85344	0	-1.49397	128.751	12.2564	-0.214023	0.006	-0.847056	0	1.62475	0	0	0	0	0	0	0	0	0	0
3.49	1.79282	449.888	-7.33647	-0.262671	0.006	-0.456712	0	-1.81384	0	-1.05399	129.558	12.3713	-0.214624	0.006	-0.846932	0	1.57774	0	0	0	0	0	0	0	0	0	0
3.5	2.2601	448.907	-7.43102	-0.262949	0.006	-0.456687	0	-1.76346	0	-0.616601	130.561	12.5333	-0.215303	0.006	-0.846813	0	1.53198	0	0	0	0	0	0	0	0	0	0
3.51	2.66792	448.348	-7.44056	-0.263193	0.006	-0.456683	0	-1.70344	0	-0.196379	131.75	12.7477	-0.216043	0.006	-0.846703	0	1.48836	0	0	0	0	0	0	0	0	0	0
3.52	3.00718	448.172	-7.36497	-0.263406	0.006	-0.456701	0	-1.63537	0	0.194645	133.11	13.0163	-0.216821	0.006	-0.846605	0	1.44773	0	0	0	0	0	0	0	0	0	0
3.53	3.26891	448.328	-7.20704	-0.263587	0.006	-0.456738	0	-1.56113	0	0.54779	134.615	13.3371	-0.217617	0.006	-0.84652	0	1.41083	0	0	0	0	0	0	0	0	0	0
3.54	3.44606	448.758	-6.97319	-0.263739	0.006	-0.456791	0	-1.48289	0	0.857858	136.237	13.7051	-0.218413	0.006	-0.846449	0	1.37814	0	0	0	0	0	0	0	0	0	0
3.55	3.53732	449.394	-6.67387	-0.263864	0.006	-0.456856	0	-1.40301	0	1.12275	137.939	14.1121	-0.219192	0.006	-0.846393	0	1.34984	0	0	0	0	0	0	0	0	0	0
3.56	3.54747	450.172	-6.32293	-0.263965	0.006	-0.45693	0	-1.32402	0	1.34313	139.679	14.5489	-0.219941	0.006	-0.846354	0	1.32575	0	0	0	0	0	0	0	0	0	0
3.57	3.48414	451.026	-5.93644	-0.264044	0.006	-0.457007	0	-1.24836	0	1.52234	141.41	15.0052	-0.22065	0.006	-0.846333	0	1.30533	0	0	0	0	0	0	0	0	0	0
3.58	3.35591	451.899	-5.53141	-0.264102	0.006	-0.457083	0	-1.17828	0	1.66512	143.082	15.4704	-0.22131	0.006	-0.846333	0	1.2878	0	0	0	0	0	0	0	0	0	0
3.59	3.17314	452.74	-5.12505	-0.264139	0.006	-0.457155	0	-1.11576	0	1.77739	144.653	15.9337	-0.221916	0.006	-0.846352	0	1.27219	0	0	0	0	0	0	0	0	0	0
3.6	2.94772	453.512	-4.73387	-0.264157	0.006	-0.457219	0	-1.06251	0	1.86602	146.087	16.3844	-0.222465	0.006	-0.846387	0	1.25753	0	0	0	0	0	0	0	0	0	0
3.61	2.69136	454.191	-4.37343	-0.264158	0.006	-0.45727	0	-1.01985	0	1.93833	147.359	16.8127	-0.222958	0.006	-0.846432	0	1.24305	0	0	0	0	0	0	0	0	0	0
3.62	2.4144	454.766	-4.05748	-0.264144	0.006	-0.457307	0	-0.988508	0	2.00153	148.448	17.2094	-0.223401	0.006	-0.846478	0	1.2282	0	0	0	0	0	0	0	0	0	0
3.63	2.12668	455.229	-3.79733	-0.264118	0.006	-0.457325	0	-0.968613	0	2.06279	149.343	17.5665	-0.223798	0.006	-0.846518	0	1.21257	0	0	0	0	0	0	0	0	0	0
3.64	1.83766	455.579	-3.6014	-0.264082	0.006	-0.457325	0	-0.959769	0	2.12854	150.036	17.8765	-0.224155	0.006	-0.846542	0	1.19584	0	0	0	0	0	0	0	0	0	0
3.65	1.55637	455.82	-3.47499	-0.264036	0.006	-0.457303	0	-0.961112	0	2.20357	150.525	18.1329	-0.224474	0.006	-0.846545	0	1.1777	0	0	0	0	0	0	0	0	0	0
3.66	1.29162	455.949	-3.42047	-0.263981	0.006	-0.457261	0	-0.971506	0	2.29049	150.811	18.3307	-0.224756	0.006	-0.846519	0	1.15785	0	0	0	0	0	0	0	0	0	0
